HIERARCHY
ROOT RootJoint
{
    OFFSET   0.000000   0.000000   0.000000
    CHANNELS 6 Xposition Yposition Zposition Xrotation Yrotation Zrotation
    JOINT pelvis_lowerback
    {
        OFFSET   0.000000   0.093605   0.000000
        CHANNELS 3 Xrotation Yrotation Zrotation
        JOINT lowerback_torso
        {
            OFFSET   0.000000   0.100000   0.000000
            CHANNELS 3 Xrotation Yrotation Zrotation
            JOINT torso_head
            {
                OFFSET   0.000000   0.282350   0.000000
                CHANNELS 3 Xrotation Yrotation Zrotation
                End Site
                {
                    OFFSET   0.000000   0.192650   0.000000
                }
            }
            JOINT rTorso_Clavicle
            {
                OFFSET  -0.001000   0.157500   0.000000
                CHANNELS 3 Xrotation Yrotation Zrotation
                JOINT rShoulder
                {
                    OFFSET  -0.117647   0.000000   0.000000
                    CHANNELS 3 Xrotation Yrotation Zrotation
                    JOINT rElbow
                    {
                        OFFSET  -0.245000   0.000000   0.000000
                        CHANNELS 3 Xrotation Yrotation Zrotation
                        JOINT rWrist
                        {
                            OFFSET  -0.240000   0.000000   0.000000
                            CHANNELS 3 Xrotation Yrotation Zrotation
                            End Site
                            {
                                OFFSET  -0.116353  -0.002500   0.000000
                            }
                        }
                    }
                }
            }
            JOINT lTorso_Clavicle
            {
                OFFSET   0.001000   0.157500   0.000000
                CHANNELS 3 Xrotation Yrotation Zrotation
                JOINT lShoulder
                {
                    OFFSET   0.117647   0.000000   0.000000
                    CHANNELS 3 Xrotation Yrotation Zrotation
                    JOINT lElbow
                    {
                        OFFSET   0.245000   0.000000   0.000000
                        CHANNELS 3 Xrotation Yrotation Zrotation
                        JOINT lWrist
                        {
                            OFFSET   0.240000   0.000000   0.000000
                            CHANNELS 3 Xrotation Yrotation Zrotation
                            End Site
                            {
                                OFFSET   0.116353  -0.002500   0.000000
                            }
                        }
                    }
                }
            }
        }
    }
    JOINT rHip
    {
        OFFSET  -0.100000  -0.051395   0.000000
        CHANNELS 3 Xrotation Yrotation Zrotation
        JOINT rKnee
        {
            OFFSET   0.000000  -0.410000   0.000000
            CHANNELS 3 Xrotation Yrotation Zrotation
            JOINT rAnkle
            {
                OFFSET   0.000000  -0.390000   0.000000
                CHANNELS 3 Xrotation Yrotation Zrotation
                JOINT rToeJoint
                {
                    OFFSET   0.000000  -0.050000   0.130000
                    CHANNELS 3 Xrotation Yrotation Zrotation
                    End Site
                    {
                        OFFSET  -0.010000   0.002000   0.060000
                    }
                }
            }
        }
    }
    JOINT lHip
    {
        OFFSET   0.100000  -0.051395   0.000000
        CHANNELS 3 Xrotation Yrotation Zrotation
        JOINT lKnee
        {
            OFFSET   0.000000  -0.410000   0.000000
            CHANNELS 3 Xrotation Yrotation Zrotation
            JOINT lAnkle
            {
                OFFSET   0.000000  -0.390000   0.000000
                CHANNELS 3 Xrotation Yrotation Zrotation
                JOINT lToeJoint
                {
                    OFFSET   0.000000  -0.050000   0.130000
                    CHANNELS 3 Xrotation Yrotation Zrotation
                    End Site
                    {
                        OFFSET   0.010000   0.002000   0.060000
                    }
                }
            }
        }
    }
}
MOTION
Frames: 11
Frame Time:   0.008333
 -2.373918   0.641432   3.875383  22.930092  -8.488531   5.761098  55.353966  -0.043366  -0.753287  -4.324382  -1.304754   0.053188 -16.694498   1.161901  -3.893082  -2.744725  15.889656  13.783970  -2.702425   1.965446  32.136782  -0.007857  31.262201   0.009588   0.642504   5.645762  -9.019807  -3.727889 -17.303918 -15.243786   0.869452  -2.082466 -33.142842  -0.002017 -23.411498  -0.001694  -1.699536  -6.784935   9.886601 -83.047251  -1.807564  -4.614273  96.706651  -0.001035  -0.001608 -36.137212  -9.677917  -5.823819  -1.218254  -0.000309   0.000331 -79.437452   5.644391   7.200809  99.485080  -0.002429  -0.001842 -36.055153   5.870622   7.306015 -10.809842  -0.001573   0.007759
 -2.373678   0.640710   3.876791  22.843216  -8.643668   5.725330  55.239801  -0.040225  -0.724947  -4.463228  -1.341439   0.001230 -16.803223   1.129847  -3.872655  -3.167222  15.742981  13.908155  -3.565297   1.681222  31.545393  -0.014111  31.794102   0.016624   0.448022   5.476999  -8.868590  -4.085315 -17.194011 -15.286789  -0.051721  -1.903541 -32.572464  -0.004742 -23.664247  -0.004418  -1.857311  -6.686720   9.802314 -82.881743  -1.821584  -4.556531  96.844552  -0.000849  -0.001393 -36.437445  -9.579904  -5.804218  -1.054520  -0.000241   0.000273 -79.648526   5.525649   7.315179 100.106869  -0.002471  -0.001707 -35.013896   5.960507   7.040980 -12.889968  -0.003534   0.008899
 -2.373324   0.640151   3.878156  22.739904  -8.835271   5.714157  55.075669  -0.043895  -0.728798  -4.634547  -1.383076  -0.065058 -16.881319   1.098596  -3.854725  -3.599210  15.599907  13.943169  -4.407082   1.435465  30.911817  -0.019848  32.309616   0.022286   0.261188   5.412947  -8.911109  -4.456525 -17.096091 -15.244885  -0.943562  -1.759824 -31.956474  -0.007288 -23.915877  -0.006639  -2.010613  -6.671246   9.895215 -82.685718  -1.819873  -4.493079  96.945267  -0.000711  -0.001213 -36.730225  -9.487163  -5.784668  -0.862851  -0.000190   0.000167 -79.788907   5.371248   7.407053 100.655091  -0.002831  -0.001719 -33.856149   5.977926   6.818454 -15.683586  -0.004515   0.014608
 -2.372904   0.639732   3.879511  22.619552  -9.034504   5.708127  54.868837  -0.054391  -0.739200  -4.851910  -1.428548  -0.134473 -16.952660   1.069293  -3.838863  -4.021428  15.470438  13.914373  -5.210773   1.222282  30.268532  -0.024520  32.796586   0.026472   0.088966   5.396637  -9.068707  -4.823257 -17.016048 -15.146571  -1.791614  -1.644502 -31.329853  -0.009378 -24.156695  -0.008294  -2.149573  -6.701186  10.095986 -82.464878  -1.815171  -4.437080  97.025107  -0.000599  -0.001057 -36.997035  -9.397147  -5.766901  -0.690774  -0.000142   0.000064 -79.924589   5.232418   7.492120 101.197021  -0.003082  -0.001776 -32.807946   6.001797   6.598279 -17.584973  -0.005352   0.016272
 -2.372404   0.639413   3.880904  22.488056  -9.252290   5.710882  54.612831  -0.068730  -0.760132  -5.111036  -1.475144  -0.209743 -17.022454   1.042190  -3.825154  -4.426458  15.351668  13.845273  -5.972532   1.036314  29.633382  -0.028056  33.254504   0.029438  -0.071391   5.406015  -9.293054  -5.177158 -16.948294 -15.016877  -2.592745  -1.551738 -30.712562  -0.010967 -24.385111  -0.009472  -2.276953  -6.757626  10.357269 -82.228752  -1.809223  -4.385462  97.093616  -0.000514  -0.000931 -37.236624  -9.313350  -5.750425  -0.548504  -0.000100  -0.000040 -80.018349   5.093451   7.566952 101.699886  -0.003321  -0.001865 -31.784621   6.009115   6.399680 -19.453087  -0.005885   0.018100
 -2.371824   0.639173   3.882354  22.348083  -9.488191   5.718581  54.309271  -0.084916  -0.787780  -5.406127  -1.521115  -0.288631 -17.092645   1.017258  -3.813024  -4.811129  15.241889  13.750816  -6.691558   0.873785  29.016901  -0.030526  33.684458   0.031410  -0.221634   5.432952  -9.556150  -5.514138 -16.889353 -14.870818  -3.346531  -1.477256 -30.116077  -0.012080 -24.600899  -0.010255  -2.394810  -6.831308  10.650586 -81.980086  -1.804995  -4.337503  97.154680  -0.000450  -0.000831 -37.451504  -9.234878  -5.734881  -0.437676  -0.000065  -0.000129 -80.069195   4.956706   7.634178 102.165079  -0.003514  -0.001964 -30.809973   6.007401   6.217326 -21.255166  -0.006284   0.019710
 -2.371176   0.639005   3.883871  22.201004  -9.737493   5.726617  53.963561  -0.101923  -0.817906  -5.730663  -1.565667  -0.367562 -17.163949   0.994343  -3.801803  -5.174140  15.139978  13.641288  -7.368333   0.731554  28.425315  -0.032053  34.087831   0.032567  -0.362838   5.473442  -9.840687  -5.832574 -16.837242 -14.717225  -4.054054  -1.417882 -29.546159  -0.012775 -24.804313  -0.010713  -2.504380  -6.917065  10.959191 -81.719427  -1.803762  -4.292831  97.209843  -0.000399  -0.000749 -37.643606  -9.160972  -5.720063  -0.358912  -0.000037  -0.000185 -80.081269   4.826432   7.696777 102.596649  -0.003627  -0.002051 -29.888696   6.004080   6.048476 -22.973871  -0.006610   0.020803
 -2.370673   0.639355   3.885146  21.877691  -9.918225   5.610168  53.517843  -0.072247  -0.782188  -5.743993  -1.587855  -0.430989 -16.989180   0.859032  -3.764692  -5.669739  14.860484  13.283018  -8.436427   0.192862  27.701768  -0.065138  35.526772   0.063490  -0.619573   5.027917  -9.393293  -6.205500 -16.524454 -14.270764  -5.332676  -1.347079 -28.767808  -0.033242 -25.809861  -0.028263  -2.766117  -6.526583  10.512717 -81.129728  -1.872982  -4.274706  97.080997  -0.000284  -0.000439 -38.026987  -9.146950  -5.433270   0.066581  -0.001015  -0.000682 -80.040146   4.582467   7.717915 103.053126  -0.003718  -0.002081 -28.426350   6.098883   5.716202 -25.377959  -0.009290   0.021121
 -2.370164   0.640059   3.886362  21.535085 -10.101102   5.495713  52.991743  -0.054161  -0.782683  -5.815812  -1.622678  -0.499206 -16.767181   0.727975  -3.729602  -6.172132  14.568812  12.772135  -9.482242  -0.283192  26.881731  -0.096370  36.912630   0.089205  -0.839781   4.872383  -9.167387  -6.608879 -16.226243 -13.650211  -6.574901  -1.331193 -27.874964  -0.052450 -26.790632  -0.042782  -2.989638  -6.410638  10.300294 -80.484857  -1.944989  -4.260563  96.881366  -0.000158  -0.000094 -38.389594  -9.127270  -5.159591   0.493664  -0.001777  -0.001077 -79.944416   4.318603   7.713033 103.425278  -0.003756  -0.002064 -26.925542   6.153588   5.430109 -27.768159  -0.010676   0.022845
 -2.369834   0.640959   3.887748  21.137246 -10.221551   5.326466  52.404842  -0.049688  -0.764635  -5.968666  -1.670553  -0.546165 -16.552631   0.605376  -3.696253  -6.661335  14.288029  12.184208 -10.485535  -0.709287  26.021962  -0.122741  38.210655   0.109439  -1.037227   4.799490  -9.130345  -7.016819 -15.958549 -12.939375  -7.758167  -1.351444 -26.936130  -0.068226 -27.714860  -0.054136  -3.183641  -6.398042  10.302404 -79.854823  -2.005482  -4.246033  96.774609  -0.000153   0.000014 -38.414395  -9.072055  -4.910783   0.903609  -0.001978  -0.000829 -79.777156   4.047504   7.698755 103.760395  -0.003550  -0.001893 -25.484418   6.200588   5.168483 -29.831613  -0.011116   0.022110
 -2.369603   0.642051   3.889347  20.738174 -10.312844   5.141672  51.727697  -0.057320  -0.753753  -6.216826  -1.728763  -0.591200 -16.358462   0.491412  -3.666060  -7.130183  14.021070  11.559711 -11.441250  -1.090515  25.156643  -0.143746  39.423935   0.124994  -1.220204   4.755706  -9.219964  -7.419040 -15.720159 -12.189988  -8.878165  -1.402345 -25.994673  -0.080289 -28.583422  -0.062879  -3.357392  -6.438966  10.443510 -79.176343  -2.077043  -4.231719  96.637290  -0.000172   0.000101 -38.471694  -9.040545  -4.679742   0.708931  -0.001342  -0.000679 -79.580691   3.794499   7.687859 104.062249  -0.003228  -0.001671 -24.117046   6.241748   4.925557 -31.505750  -0.010848   0.020069
